ffmpeg version 2022-04-14-git-ea84eb2db1-essentials_build-www.gyan.dev Copyright (c) 2000-2022 the FFmpeg developers
  built with gcc 11.2.0 (Rev10, Built by MSYS2 project)
  configuration: --enable-gpl --enable-version3 --enable-static --disable-w32threads --disable-autodetect --enable-fontconfig --enable-iconv --enable-gnutls --enable-libxml2 --enable-gmp --enable-bzlib --enable-lzma --enable-zlib --enable-libsrt --enable-libssh --enable-libzmq --enable-avisynth --enable-sdl2 --enable-libwebp --enable-libx264 --enable-libx265 --enable-libxvid --enable-libaom --enable-libopenjpeg --enable-libvpx --enable-mediafoundation --enable-libass --enable-libfreetype --enable-libfribidi --enable-libvidstab --enable-libvmaf --enable-libzimg --enable-amf --enable-cuda-llvm --enable-cuvid --enable-ffnvcodec --enable-nvdec --enable-nvenc --enable-d3d11va --enable-dxva2 --enable-libmfx --enable-libgme --enable-libopenmpt --enable-libopencore-amrwb --enable-libmp3lame --enable-libtheora --enable-libvo-amrwbenc --enable-libgsm --enable-libopencore-amrnb --enable-libopus --enable-libspeex --enable-libvorbis --enable-librubberband
  libavutil      57. 24.101 / 57. 24.101
  libavcodec     59. 26.100 / 59. 26.100
  libavformat    59. 22.100 / 59. 22.100
  libavdevice    59.  6.100 / 59.  6.100
  libavfilter     8. 31.100 /  8. 31.100
  libswscale      6.  6.100 /  6.  6.100
  libswresample   4.  6.100 /  4.  6.100
  libpostproc    56.  5.100 / 56.  5.100
Splitting the commandline.
Reading option '-v' ... matched as option 'v' (set logging level) with argument 'debug'.
Reading option '-nostdin' ... matched as option 'stdin' (enable or disable interaction on standard input) with argument 0.
Reading option '-progress' ... matched as option 'progress' (write program-readable progress information) with argument 'C:/Users/pedro/AppData/Local/Temp/KritaFFmpegProgress.NtWBZb'.
Reading option '-r' ... matched as option 'r' (set frame rate (Hz value, fraction or abbreviation)) with argument '14'.
Reading option '-start_number' ... matched as AVOption 'start_number' with argument '24'.
Reading option '-i' ... matched as input url with argument 'C:/Users/pedro/DEV/jump-tales/characters/drexa/new/gifs/frame%04d.png'.
Reading option '-i' ... matched as input url with argument 'C:/Users/pedro/DEV/jump-tales/characters/drexa/new/gifs/palette.png'.
Reading option '-lavfi' ... matched as option 'lavfi' (create a complex filtergraph) with argument '[0:v][1:v] paletteuse'.
Reading option '-y' ... matched as option 'y' (overwrite output files) with argument '1'.
Reading option 'C:/Users/pedro/DEV/jump-tales/characters/drexa/new/gifs/drexa-walk.gif' ... matched as output url.
Finished splitting the commandline.
Parsing a group of options: global .
Applying option v (set logging level) with argument debug.
Applying option nostdin (enable or disable interaction on standard input) with argument 0.
Applying option progress (write program-readable progress information) with argument C:/Users/pedro/AppData/Local/Temp/KritaFFmpegProgress.NtWBZb.
[file @ 000001d9958dca00] Setting default whitelist 'file,crypto,data'
Applying option lavfi (create a complex filtergraph) with argument [0:v][1:v] paletteuse.
Applying option y (overwrite output files) with argument 1.
Successfully parsed a group of options.
Parsing a group of options: input url C:/Users/pedro/DEV/jump-tales/characters/drexa/new/gifs/frame%04d.png.
Applying option r (set frame rate (Hz value, fraction or abbreviation)) with argument 14.
Successfully parsed a group of options.
Opening an input file: C:/Users/pedro/DEV/jump-tales/characters/drexa/new/gifs/frame%04d.png.
[image2 @ 000001d99591d040] Opening 'C:/Users/pedro/DEV/jump-tales/characters/drexa/new/gifs/frame0024.png' for reading
[file @ 000001d995921d40] Setting default whitelist 'file,crypto,data'
[AVIOContext @ 000001d995929f00] Statistics: 3502 bytes read, 0 seeks
[image2 @ 000001d99591d040] Opening 'C:/Users/pedro/DEV/jump-tales/characters/drexa/new/gifs/frame0025.png' for reading
[file @ 000001d995969f00] Setting default whitelist 'file,crypto,data'
[AVIOContext @ 000001d99592b080] Statistics: 3519 bytes read, 0 seeks
[image2 @ 000001d99591d040] Opening 'C:/Users/pedro/DEV/jump-tales/characters/drexa/new/gifs/frame0026.png' for reading
[file @ 000001d99592b000] Setting default whitelist 'file,crypto,data'
[AVIOContext @ 000001d995929d80] Statistics: 3603 bytes read, 0 seeks
[image2 @ 000001d99591d040] Opening 'C:/Users/pedro/DEV/jump-tales/characters/drexa/new/gifs/frame0027.png' for reading
[file @ 000001d995929d80] Setting default whitelist 'file,crypto,data'
[AVIOContext @ 000001d995929e80] Statistics: 3622 bytes read, 0 seeks
[image2 @ 000001d99591d040] Opening 'C:/Users/pedro/DEV/jump-tales/characters/drexa/new/gifs/frame0028.png' for reading
[file @ 000001d995929e40] Setting default whitelist 'file,crypto,data'
[AVIOContext @ 000001d99596e000] Statistics: 3572 bytes read, 0 seeks
[image2 @ 000001d99591d040] Opening 'C:/Users/pedro/DEV/jump-tales/characters/drexa/new/gifs/frame0029.png' for reading
[file @ 000001d995929e40] Setting default whitelist 'file,crypto,data'
[AVIOContext @ 000001d99596f040] Statistics: 3532 bytes read, 0 seeks
[image2 @ 000001d99591d040] Opening 'C:/Users/pedro/DEV/jump-tales/characters/drexa/new/gifs/frame0030.png' for reading
[file @ 000001d995929e40] Setting default whitelist 'file,crypto,data'
[AVIOContext @ 000001d995970080] Statistics: 3565 bytes read, 0 seeks
[image2 @ 000001d99591d040] Opening 'C:/Users/pedro/DEV/jump-tales/characters/drexa/new/gifs/frame0031.png' for reading
[file @ 000001d995929e40] Setting default whitelist 'file,crypto,data'
[AVIOContext @ 000001d995971900] Statistics: 3537 bytes read, 0 seeks
Input #0, image2, from 'C:/Users/pedro/DEV/jump-tales/characters/drexa/new/gifs/frame%04d.png':
  Duration: 00:00:00.32, start: 0.000000, bitrate: N/A
  Stream #0:0, 8, 1/25: Video: png, 1 reference frame, rgba(pc), 246x246 [SAR 3779:3779 DAR 1:1], 0/1, 25 fps, 25 tbr, 25 tbn
Successfully opened the file.
Parsing a group of options: input url C:/Users/pedro/DEV/jump-tales/characters/drexa/new/gifs/palette.png.
Successfully parsed a group of options.
Opening an input file: C:/Users/pedro/DEV/jump-tales/characters/drexa/new/gifs/palette.png.
[NULL @ 000001d995974640] Opening 'C:/Users/pedro/DEV/jump-tales/characters/drexa/new/gifs/palette.png' for reading
[file @ 000001d99591cf40] Setting default whitelist 'file,crypto,data'
[png_pipe @ 000001d995974640] Format png_pipe probed with size=2048 and score=99
[png_pipe @ 000001d995974640] Before avformat_find_stream_info() pos: 0 bytes read:138 seeks:0 nb_streams:1
[png_pipe @ 000001d995974640] After avformat_find_stream_info() pos: 138 bytes read:138 seeks:0 frames:1
Input #1, png_pipe, from 'C:/Users/pedro/DEV/jump-tales/characters/drexa/new/gifs/palette.png':
  Duration: N/A, bitrate: N/A
  Stream #1:0, 1, 1/25: Video: png, 1 reference frame, rgba(pc), 16x16 [SAR 1:1 DAR 1:1], 0/1, 25 fps, 25 tbr, 25 tbn
Successfully opened the file.
Parsing a group of options: output url C:/Users/pedro/DEV/jump-tales/characters/drexa/new/gifs/drexa-walk.gif.
Successfully parsed a group of options.
Opening an output file: C:/Users/pedro/DEV/jump-tales/characters/drexa/new/gifs/drexa-walk.gif.
[file @ 000001d995977900] Setting default whitelist 'file,crypto,data'
Successfully opened the file.
detected 4 logical cores
Stream mapping:
  Stream #0:0 (png) -> paletteuse
  Stream #1:0 (png) -> paletteuse
  paletteuse:default -> Stream #0:0 (gif)
cur_dts is invalid st:0 (0) [init:0 i_done:0 finish:0] (this is harmless if it occurs once at the start per stream)
    Last message repeated 6 times
[graph 0 input from stream 0:0 @ 000001d995b27e80] Setting 'video_size' to value '246x246'
[graph 0 input from stream 0:0 @ 000001d995b27e80] Setting 'pix_fmt' to value '26'
[graph 0 input from stream 0:0 @ 000001d995b27e80] Setting 'time_base' to value '1/14'
[graph 0 input from stream 0:0 @ 000001d995b27e80] Setting 'pixel_aspect' to value '3779/3779'
[graph 0 input from stream 0:0 @ 000001d995b27e80] Setting 'frame_rate' to value '14/1'
[graph 0 input from stream 0:0 @ 000001d995b27e80] w:246 h:246 pixfmt:rgba tb:1/14 fr:14/1 sar:3779/3779
[graph 0 input from stream 1:0 @ 000001d99599ff80] Setting 'video_size' to value '16x16'
[graph 0 input from stream 1:0 @ 000001d99599ff80] Setting 'pix_fmt' to value '26'
[graph 0 input from stream 1:0 @ 000001d99599ff80] Setting 'time_base' to value '1/25'
[graph 0 input from stream 1:0 @ 000001d99599ff80] Setting 'pixel_aspect' to value '1/1'
[graph 0 input from stream 1:0 @ 000001d99599ff80] Setting 'frame_rate' to value '25/1'
[graph 0 input from stream 1:0 @ 000001d99599ff80] w:16 h:16 pixfmt:rgba tb:1/25 fr:25/1 sar:1/1
[format @ 000001d9959a0340] Setting 'pix_fmts' to value 'rgb8|bgr8|rgb4_byte|bgr4_byte|gray|pal8'
[auto_scale_0 @ 000001d9959a1680] w:iw h:ih flags:'' interl:0
[Parsed_paletteuse_0 @ 000001d993e58c40] auto-inserting filter 'auto_scale_0' between the filter 'graph 0 input from stream 0:0' and the filter 'Parsed_paletteuse_0'
[auto_scale_1 @ 000001d9959a1d80] w:iw h:ih flags:'' interl:0
[Parsed_paletteuse_0 @ 000001d993e58c40] auto-inserting filter 'auto_scale_1' between the filter 'graph 0 input from stream 1:0' and the filter 'Parsed_paletteuse_0'
[AVFilterGraph @ 000001d99598e200] query_formats: 5 queried, 4 merged, 2 already done, 0 delayed
[swscaler @ 000001d995b27f80] [swscaler @ 000001d995b34f40] Forcing full internal H chroma due to input having non subsampled chroma
[swscaler @ 000001d995b27f80] [swscaler @ 000001d995b41f00] Forcing full internal H chroma due to input having non subsampled chroma
[swscaler @ 000001d995b27f80] [swscaler @ 000001d995b57f80] Forcing full internal H chroma due to input having non subsampled chroma
[swscaler @ 000001d995b27f80] [swscaler @ 000001d995b6ee80] Forcing full internal H chroma due to input having non subsampled chroma
[swscaler @ 000001d995b27f80] [swscaler @ 000001d995b84f00] Forcing full internal H chroma due to input having non subsampled chroma
[auto_scale_0 @ 000001d9959a1680] w:246 h:246 fmt:rgba sar:3779/3779 -> w:246 h:246 fmt:bgra sar:1/1 flags:0x0
[swscaler @ 000001d995ba0e80] [swscaler @ 000001d996bc40c0] Forcing full internal H chroma due to input having non subsampled chroma
[swscaler @ 000001d995ba0e80] [swscaler @ 000001d996bd70c0] Forcing full internal H chroma due to input having non subsampled chroma
[swscaler @ 000001d995ba0e80] [swscaler @ 000001d996bea100] Forcing full internal H chroma due to input having non subsampled chroma
[swscaler @ 000001d995ba0e80] [swscaler @ 000001d996bfd100] Forcing full internal H chroma due to input having non subsampled chroma
[swscaler @ 000001d995ba0e80] [swscaler @ 000001d996c14140] Forcing full internal H chroma due to input having non subsampled chroma
[auto_scale_1 @ 000001d9959a1d80] w:16 h:16 fmt:rgba sar:1/1 -> w:16 h:16 fmt:bgra sar:1/1 flags:0x0
[Parsed_paletteuse_0 @ 000001d993e58c40] [framesync @ 000001d995bba088] Selected 1/350 time base
[Parsed_paletteuse_0 @ 000001d993e58c40] [framesync @ 000001d995bba088] Sync level 2
[swscaler @ 000001d995b27f80] [swscaler @ 000001d995b34f40] Forcing full internal H chroma due to input having non subsampled chroma
[swscaler @ 000001d995b27f80] [swscaler @ 000001d995b41f00] Forcing full internal H chroma due to input having non subsampled chroma
[swscaler @ 000001d995b27f80] [swscaler @ 000001d995b5cf40] Forcing full internal H chroma due to input having non subsampled chroma
[swscaler @ 000001d995b27f80] [swscaler @ 000001d995b6ff80] Forcing full internal H chroma due to input having non subsampled chroma
[swscaler @ 000001d995b27f80] [swscaler @ 000001d995b82f80] Forcing full internal H chroma due to input having non subsampled chroma
[auto_scale_0 @ 000001d9959a1680] w:246 h:246 fmt:rgba sar:3779/3779 -> w:246 h:246 fmt:bgra sar:1/1 flags:0x0
[swscaler @ 000001d995b27f80] [swscaler @ 000001d995b34f40] Forcing full internal H chroma due to input having non subsampled chroma
[swscaler @ 000001d995b27f80] [swscaler @ 000001d995b41f00] Forcing full internal H chroma due to input having non subsampled chroma
[swscaler @ 000001d995b27f80] [swscaler @ 000001d995b5cf40] Forcing full internal H chroma due to input having non subsampled chroma
[swscaler @ 000001d995b27f80] [swscaler @ 000001d995b6ff80] Forcing full internal H chroma due to input having non subsampled chroma
[swscaler @ 000001d995b27f80] [swscaler @ 000001d995b82f80] Forcing full internal H chroma due to input having non subsampled chroma
[auto_scale_0 @ 000001d9959a1680] w:246 h:246 fmt:rgba sar:3779/3779 -> w:246 h:246 fmt:bgra sar:1/1 flags:0x0
[swscaler @ 000001d995b27f80] [swscaler @ 000001d995b34f40] Forcing full internal H chroma due to input having non subsampled chroma
[swscaler @ 000001d995b27f80] [swscaler @ 000001d995b41f00] Forcing full internal H chroma due to input having non subsampled chroma
[swscaler @ 000001d995b27f80] [swscaler @ 000001d995b5cf40] Forcing full internal H chroma due to input having non subsampled chroma
[swscaler @ 000001d995b27f80] [swscaler @ 000001d995b6ff80] Forcing full internal H chroma due to input having non subsampled chroma
[swscaler @ 000001d995b27f80] [swscaler @ 000001d995b82f80] Forcing full internal H chroma due to input having non subsampled chroma
[auto_scale_0 @ 000001d9959a1680] w:246 h:246 fmt:rgba sar:3779/3779 -> w:246 h:246 fmt:bgra sar:1/1 flags:0x0
[swscaler @ 000001d995ba0dc0] [swscaler @ 000001d996c14140] Forcing full internal H chroma due to input having non subsampled chroma
[swscaler @ 000001d995ba0dc0] [swscaler @ 000001d996bc40c0] Forcing full internal H chroma due to input having non subsampled chroma
[swscaler @ 000001d995ba0dc0] [swscaler @ 000001d996bd70c0] Forcing full internal H chroma due to input having non subsampled chroma
[swscaler @ 000001d995ba0dc0] [swscaler @ 000001d996bea100] Forcing full internal H chroma due to input having non subsampled chroma
[swscaler @ 000001d995ba0dc0] [swscaler @ 000001d996bfd100] Forcing full internal H chroma due to input having non subsampled chroma
[auto_scale_1 @ 000001d9959a1d80] w:16 h:16 fmt:rgba sar:1/1 -> w:16 h:16 fmt:bgra sar:1/1 flags:0x0
[swscaler @ 000001d995ba0dc0] [swscaler @ 000001d996c14140] Forcing full internal H chroma due to input having non subsampled chroma
[swscaler @ 000001d995ba0dc0] [swscaler @ 000001d996bc40c0] Forcing full internal H chroma due to input having non subsampled chroma
[swscaler @ 000001d995ba0dc0] [swscaler @ 000001d996bd70c0] Forcing full internal H chroma due to input having non subsampled chroma
[swscaler @ 000001d995ba0dc0] [swscaler @ 000001d996bea100] Forcing full internal H chroma due to input having non subsampled chroma
[swscaler @ 000001d995ba0dc0] [swscaler @ 000001d996bfd100] Forcing full internal H chroma due to input having non subsampled chroma
[auto_scale_1 @ 000001d9959a1d80] w:16 h:16 fmt:rgba sar:1/1 -> w:16 h:16 fmt:bgra sar:1/1 flags:0x0
[swscaler @ 000001d995ba0dc0] [swscaler @ 000001d996c14140] Forcing full internal H chroma due to input having non subsampled chroma
[swscaler @ 000001d995ba0dc0] [swscaler @ 000001d996bc40c0] Forcing full internal H chroma due to input having non subsampled chroma
[swscaler @ 000001d995ba0dc0] [swscaler @ 000001d996bd70c0] Forcing full internal H chroma due to input having non subsampled chroma
[swscaler @ 000001d995ba0dc0] [swscaler @ 000001d996bea100] Forcing full internal H chroma due to input having non subsampled chroma
[swscaler @ 000001d995ba0dc0] [swscaler @ 000001d996bfd100] Forcing full internal H chroma due to input having non subsampled chroma
[auto_scale_1 @ 000001d9959a1d80] w:16 h:16 fmt:rgba sar:1/1 -> w:16 h:16 fmt:bgra sar:1/1 flags:0x0
Output #0, gif, to 'C:/Users/pedro/DEV/jump-tales/characters/drexa/new/gifs/drexa-walk.gif':
  Metadata:
    encoder         : Lavf59.22.100
  Stream #0:0, 0, 1/100: Video: gif, 1 reference frame, pal8(pc, gbr/unknown/unknown, progressive), 246x246 (0x0) [SAR 1:1 DAR 1:1], 0/1, q=2-31, 200 kb/s, 14 fps, 100 tbn
    Metadata:
      encoder         : Lavc59.26.100 gif
Clipping frame in rate conversion by 0.000008
frame=    1 fps=0.0 q=-0.0 size=       0kB time=00:00:00.01 bitrate=   0.0kbits/s speed=8.64x    [gif @ 000001d995976c00] 126x219 image at pos (63;27) [area:246x246]
[gif @ 000001d995976c00] 150x222 image at pos (54;24) [area:246x246]
[gif @ 000001d995976c00] 141x177 image at pos (51;48) [area:246x246]
[gif @ 000001d995976c00] 153x222 image at pos (51;24) [area:246x246]
[gif @ 000001d995976c00] 126x219 image at pos (63;27) [area:246x246]
[gif @ 000001d995976c00] 117x222 image at pos (69;24) [area:246x246]
[gif @ 000001d995976c00] 126x177 image at pos (63;48) [area:246x246]
[Parsed_paletteuse_0 @ 000001d993e58c40] [framesync @ 000001d995bba088] Sync level 0
[out_0_0 @ 000001d9959a0240] EOF on sink link out_0_0:default.
No more output streams to write to, finishing.
frame=    8 fps=0.0 q=-0.0 Lsize=      14kB time=00:00:00.51 bitrate= 232.2kbits/s speed=12.6x    
[AVIOContext @ 000001d99591cc00] Statistics: 377 bytes written, 0 seeks, 2 writeouts
video:14kB audio:0kB subtitle:0kB other streams:0kB global headers:0kB muxing overhead: 0.135318%
Input file #0 (C:/Users/pedro/DEV/jump-tales/characters/drexa/new/gifs/frame%04d.png):
  Input stream #0:0 (video): 8 packets read (28452 bytes); 8 frames decoded; 
  Total: 8 packets (28452 bytes) demuxed
Input file #1 (C:/Users/pedro/DEV/jump-tales/characters/drexa/new/gifs/palette.png):
  Input stream #1:0 (video): 1 packets read (138 bytes); 1 frames decoded; 
  Total: 1 packets (138 bytes) demuxed
Output file #0 (C:/Users/pedro/DEV/jump-tales/characters/drexa/new/gifs/drexa-walk.gif):
  Output stream #0:0 (video): 8 frames encoded; 8 packets muxed (14780 bytes); 
  Total: 8 packets (14780 bytes) muxed
[AVIOContext @ 000001d995977a00] Statistics: 14800 bytes written, 0 seeks, 1 writeouts
9 frames successfully decoded, 0 decoding errors
[AVIOContext @ 000001d9958dc6c0] Statistics: 138 bytes read, 0 seeks
